<svg xmlns="http://www.w3.org/2000/svg" width="1200" height="430" viewBox="0 0 1200 430" role="img" aria-labelledby="title desc">
<title id="title">Ruham Pires — Applied AI Engineer · Computer Vision · GenAI</title><desc id="desc">Applied intelligence. Operational perspective. Original isometric 3D illustration of an AI computing core and connected systems.</desc>
<rect width="1200" height="430" rx="16" fill="#f1f6f7"/><g stroke="#bacfd5" stroke-width=".7" opacity=".22"><path d="M24 0V430"/><path d="M68 0V430"/><path d="M112 0V430"/><path d="M156 0V430"/><path d="M200 0V430"/><path d="M244 0V430"/><path d="M288 0V430"/><path d="M332 0V430"/><path d="M376 0V430"/><path d="M420 0V430"/><path d="M464 0V430"/><path d="M508 0V430"/><path d="M552 0V430"/><path d="M596 0V430"/><path d="M640 0V430"/><path d="M684 0V430"/><path d="M728 0V430"/><path d="M772 0V430"/><path d="M816 0V430"/><path d="M860 0V430"/><path d="M904 0V430"/><path d="M948 0V430"/><path d="M992 0V430"/><path d="M1036 0V430"/><path d="M1080 0V430"/><path d="M1124 0V430"/><path d="M1168 0V430"/><path d="M0 24H1200"/><path d="M0 68H1200"/><path d="M0 112H1200"/><path d="M0 156H1200"/><path d="M0 200H1200"/><path d="M0 244H1200"/><path d="M0 288H1200"/><path d="M0 332H1200"/><path d="M0 376H1200"/><path d="M0 420H1200"/></g><defs>
      <linearGradient id="top" x2="1" y2="1"><stop stop-color="#006d73" stop-opacity=".85"/><stop offset="1" stop-color="#e2edf0"/></linearGradient>
      <linearGradient id="side" x2="1" y2="1"><stop stop-color="#e2edf0"/><stop offset="1" stop-color="#f1f6f7"/></linearGradient>
      <radialGradient id="halo"><stop stop-color="#006d73" stop-opacity=".18"/><stop offset="1" stop-color="#f1f6f7" stop-opacity="0"/></radialGradient>
      </defs><g transform="translate(970 210) scale(0.88)">
      <circle r="195" fill="url(#halo)"/>
      <ellipse cy="117" rx="154" ry="33" fill="#f1f6f7" opacity=".6"/>
      <ellipse rx="180" ry="76" fill="none" stroke="#bacfd5" transform="rotate(-28)"/>
      <ellipse rx="179" ry="76" fill="none" stroke="#006d73" stroke-opacity=".35" stroke-dasharray="3 9" transform="rotate(28)"/>
      <polygon points="-134,40 0,107.0 0,129.0 -134,62" fill="url(#side)"/><polygon points="0,107.0 134,40 134,62 0,129.0" fill="#cce6e5"/><polygon points="0,-27.0 134,40 0,107.0 -134,40" fill="url(#top)"/><g fill="none" stroke="#006d73" stroke-opacity=".65" stroke-width="1.2"><polygon points="0,-27.0 134,40 0,107.0 -134,40"/><path d="M-134 40v22l134 67.0 134 -67.0v-22M0 107.0v22"/></g><polygon points="-104,-5 0,47.0 0,72.0 -104,20" fill="url(#side)"/><polygon points="0,47.0 104,-5 104,20 0,72.0" fill="#cce6e5"/><polygon points="0,-57.0 104,-5 0,47.0 -104,-5" fill="url(#top)"/><g fill="none" stroke="#006d73" stroke-opacity=".65" stroke-width="1.2"><polygon points="0,-57.0 104,-5 0,47.0 -104,-5"/><path d="M-104 -5v25l104 52.0 104 -52.0v-25M0 47.0v25"/></g><polygon points="-59,-67 0,-37.5 0,37.5 -59,8" fill="url(#side)"/><polygon points="0,-37.5 59,-67 59,8 0,37.5" fill="#cce6e5"/><polygon points="0,-96.5 59,-67 0,-37.5 -59,-67" fill="url(#top)"/><g fill="none" stroke="#006d73" stroke-opacity=".65" stroke-width="1.2"><polygon points="0,-96.5 59,-67 0,-37.5 -59,-67"/><path d="M-59 -67v75l59 29.5 59 -29.5v-75M0 -37.5v75"/></g><polygon points="-136,-80 -112,-68.0 -112,-39.0 -136,-51" fill="url(#side)"/><polygon points="-112,-68.0 -88,-80 -88,-51 -112,-39.0" fill="#cce6e5"/><polygon points="-112,-92.0 -88,-80 -112,-68.0 -136,-80" fill="url(#top)"/><g fill="none" stroke="#006d73" stroke-opacity=".65" stroke-width="1.2"><polygon points="-112,-92.0 -88,-80 -112,-68.0 -136,-80"/><path d="M-136 -80v29l24 12.0 24 -12.0v-29M-112 -68.0v29"/></g><polygon points="88,-20 110,-9.0 110,21.0 88,10" fill="url(#side)"/><polygon points="110,-9.0 132,-20 132,10 110,21.0" fill="#cce6e5"/><polygon points="110,-31.0 132,-20 110,-9.0 88,-20" fill="url(#top)"/><g fill="none" stroke="#006d73" stroke-opacity=".65" stroke-width="1.2"><polygon points="110,-31.0 132,-20 110,-9.0 88,-20"/><path d="M88 -20v30l22 11.0 22 -11.0v-30M110 -9.0v30"/></g><polygon points="65,88 82,96.5 82,115.5 65,107" fill="url(#side)"/><polygon points="82,96.5 99,88 99,107 82,115.5" fill="#cce6e5"/><polygon points="82,79.5 99,88 82,96.5 65,88" fill="url(#top)"/><g fill="none" stroke="#006d73" stroke-opacity=".65" stroke-width="1.2"><polygon points="82,79.5 99,88 82,96.5 65,88"/><path d="M65 88v19l17 8.5 17 -8.5v-19M82 96.5v19"/></g>
      <path d="M-112-50v26l53 27M110 10v21l-46 25" fill="none" stroke="#006d73" stroke-width="2"/>
      <g transform="translate(-16 -92)"><g fill="none" stroke="#172d3b" stroke-width="1.7" stroke-linecap="round" stroke-linejoin="round"><path d="M7 8 25 10 17 25 7 8M7 8l-2 16 12 1M25 10l3 15-11 0"/><circle cx="7" cy="8" r="3"/><circle cx="25" cy="10" r="3"/><circle cx="17" cy="25" r="3"/></g></g>
      <circle cx="-166" cy="-53" r="5" fill="#006d73"/>
      <circle cx="163" cy="61" r="4" fill="#006d73"/>
    </g><g font-family="Arial, Helvetica, sans-serif" fill="#172d3b"><text x="52" y="69" font-size="17" letter-spacing="3" fill="#516878">RUHAM PIRES / DATA &amp; AI</text><text x="52" y="178" font-size="55" font-weight="700">Applied intelligence.</text><text x="52" y="246" font-size="55" font-weight="700" fill="#006d73">Operational perspective.</text><text x="52" y="367" font-family="monospace" font-size="14" letter-spacing="1.6" fill="#516878">DATA &amp; AI / EDENRED / BRAZIL</text><text x="1128" y="367" text-anchor="end" font-family="monospace" font-size="12" fill="#516878">VISION / MODELS / SYSTEMS</text></g><path d="M52 324H1148" stroke="#bacfd5"/>
<rect x=".5" y=".5" width="1199" height="429" rx="16" fill="none" stroke="#bacfd5"/></svg>
